# xmcd
#
# Track frame offsets:
#	150
#	12635
#	34100
#	52635
#	74287
#	99712
#	121347
#	138965
#	161042
#	178307
#
# Disc length: 2651 seconds
#
# Revision: 1
# Processed by: cddbd v1.5.1PL0 Copyright (c) Steve Scherf et al.
# Submitted via: CDex 1.50Beta5
#
DISCID=870a590a
DTITLE=尾崎亜美 - POINTS-2
DYEAR=1900
DGENRE=Pop
TTITLE0=曇りのち晴れ
TTITLE1=ボーイの季節
TTITLE2=涙を海に返したい
TTITLE3=恋は行方不明
TTITLE4=Summer Beach
TTITLE5=Know How
TTITLE6=微風のメロディー
TTITLE7=夏の幻影
TTITLE8=Air Mail
TTITLE9=時に愛は
EXTD=
EXTT0=
EXTT1=
EXTT2=
EXTT3=
EXTT4=
EXTT5=
EXTT6=
EXTT7=
EXTT8=
EXTT9=
PLAYORDER=
